<?xml version="1.0" encoding="UTF-8" standalone="no"?><!-- Generator: Gravit.io --><svg xmlns="http://www.w3.org/2000/svg" xmlns:xlink="http://www.w3.org/1999/xlink" style="isolation:isolate" viewBox="0 0 512 512" width="512pt" height="512pt"><g><radialGradient id="_rgradient_0" fx="0.9583622744577874" fy="0.8165105822197674" cx="0.9583622744577874" cy="0.8165105822197674" r="1" gradientTransform="matrix(308.9,0,0,329.802,203.1,104.362)" gradientUnits="userSpaceOnUse"><stop offset="76.3%" stop-opacity="1" style="stop-color:rgb(246,196,129)"/><stop offset="86.9%" stop-opacity="1" style="stop-color:rgb(243,193,127)"/><stop offset="92.97%" stop-opacity="1" style="stop-color:rgb(232,183,120)"/><stop offset="97.88%" stop-opacity="1" style="stop-color:rgb(215,167,109)"/><stop offset="100%" stop-opacity="1" style="stop-color:rgb(205,157,103)"/></radialGradient><path d=" M 203.844 414.638 C 203.844 414.638 173.525 126.146 500.131 104.395 C 506.853 103.95 516.495 108.004 509.654 116.427 C 476.05 157.843 380.187 291.346 422.541 421.373 C 424.166 426.371 417.41 434.165 409.853 434.165 C 324.24 404.51 203.844 414.638 203.844 414.638 Z " fill="url(#_rgradient_0)"/><linearGradient id="_lgradient_0" x1="0.17361136612744366" y1="0.3893854244066254" x2="0.8618990841874129" y2="0.6601293975646794" gradientTransform="matrix(201.14,0,0,313.549,286.885,120.614)" gradientUnits="userSpaceOnUse"><stop offset="0%" stop-opacity="0.8" style="stop-color:rgb(134,98,62)"/><stop offset="100%" stop-opacity="1" style="stop-color:rgb(205,157,103)"/></linearGradient><path d=" M 287.029 413.741 C 287.029 413.741 275.031 171.459 470.037 121.401 C 478.737 119.171 493.063 121.488 486.239 130.832 C 454.701 174.038 374.123 296.626 414.08 419.671 C 415.589 424.329 416.47 433.472 409.853 434.163 C 409.853 434.163 360.808 421.706 345.58 419.176 C 324.033 415.597 287.029 413.741 287.029 413.741 Z " fill="url(#_lgradient_0)"/><radialGradient id="_rgradient_1" fx="2.2071517934129803" fy="0.5183364411010294" cx="2.2071517934129803" cy="0.5183364411010294" r="1" gradientTransform="matrix(241.711,0,0,403.728,0,54.136)" gradientUnits="userSpaceOnUse"><stop offset="76.3%" stop-opacity="1" style="stop-color:rgb(246,196,129)"/><stop offset="86.22%" stop-opacity="1" style="stop-color:rgb(242,192,127)"/><stop offset="92.67999999999999%" stop-opacity="1" style="stop-color:rgb(231,182,119)"/><stop offset="98.14%" stop-opacity="1" style="stop-color:rgb(213,165,108)"/><stop offset="100%" stop-opacity="1" style="stop-color:rgb(205,157,103)"/></radialGradient><path d=" M 20.766 435.352 C 4.069 353.176 -26.883 151.489 47.802 58.493 C 50.115 55.618 58.256 51.929 63.864 55.817 C 96.364 78.342 209.236 172.592 241.711 413.116 C 241.711 413.116 158.282 416.346 62.455 456.004 C 51.368 460.59 25.319 457.762 20.766 435.352 Z " fill="url(#_rgradient_1)"/><linearGradient id="_lgradient_1" x1="0.06362854521626088" y1="0.527852424981863" x2="0.7470054697691191" y2="0.3450630753274949" gradientTransform="matrix(176.4,0,0,366.933,56.544,69.84)" gradientUnits="userSpaceOnUse"><stop offset="0%" stop-opacity="0.8" style="stop-color:rgb(134,98,62)"/><stop offset="100%" stop-opacity="1" style="stop-color:rgb(205,157,103)"/></linearGradient><path d=" M 116.401 436.773 C 116.401 436.773 42.11 220.767 59.058 76.364 C 59.55 72.179 64.877 66.604 71.852 72.199 C 106.083 99.685 205.922 195.181 232.944 413.711 C 232.944 413.711 188.053 419.57 174.128 422.301 C 158.87 425.28 116.401 436.773 116.401 436.773 Z " fill="url(#_lgradient_1)"/></g></svg>